# xmcd CD database file
#
# Track frame offsets:
#	150
#	17756
#	30379
#	59389
#	91567
#	121376
#	152235
#	165106
#	198801
#	212161
#
# Disc length: 3135 seconds
#
# Revision: 0
# Processed by: cddbd v1.5.2PL0 Copyright (c) Steve Scherf et al.
# Submitted via: CDex 1.84
#
DISCID=6f0c3d0a
DTITLE=Wolfgang Schmid - A Swift Kick
DYEAR=2005
DGENRE=Jazz
TTITLE0=Open The Doors
TTITLE1=Bratwurst Wonderland
TTITLE2=Back On The Track
TTITLE3=Chocolele
TTITLE4=Acapulco Sunset
TTITLE5=A Latin Buty
TTITLE6=Future Jazz
TTITLE7=On The Move
TTITLE8=Eddie Hoo
TTITLE9=Johnny B. Goode
EXTD=YEAR: 2005
EXTT0=
EXTT1=
EXTT2=
EXTT3=
EXTT4=
EXTT5=
EXTT6=
EXTT7=
EXTT8=
EXTT9=
PLAYORDER=
